<svg width="20" height="20" viewBox="0 0 20 20" fill="none" xmlns="http://www.w3.org/2000/svg">
<g clip-path="url(#clip0_70_4937)">
<path d="M9.1665 3.33337H3.33317C2.89114 3.33337 2.46722 3.50897 2.15466 3.82153C1.8421 4.13409 1.6665 4.55801 1.6665 5.00004V16.6667C1.6665 17.1087 1.8421 17.5327 2.15466 17.8452C2.46722 18.1578 2.89114 18.3334 3.33317 18.3334H14.9998C15.4419 18.3334 15.8658 18.1578 16.1783 17.8452C16.4909 17.5327 16.6665 17.1087 16.6665 16.6667V10.8334" stroke="white" stroke-width="2" stroke-linecap="round" stroke-linejoin="round"/>
<path d="M15.4165 2.08332C15.748 1.7518 16.1977 1.56555 16.6665 1.56555C17.1353 1.56555 17.585 1.7518 17.9165 2.08332C18.248 2.41484 18.4343 2.86448 18.4343 3.33332C18.4343 3.80216 18.248 4.2518 17.9165 4.58332L9.99984 12.5L6.6665 13.3333L7.49984 9.99999L15.4165 2.08332Z" stroke="white" stroke-width="2" stroke-linecap="round" stroke-linejoin="round"/>
</g>
<defs>
<clipPath id="clip0_70_4937">
<rect width="20" height="20" fill="white"/>
</clipPath>
</defs>
</svg>
